<svg width="28" height="25" viewBox="0 0 28 25" fill="none" xmlns="http://www.w3.org/2000/svg">
<path d="M2.12869 9.47297L4.01984 4.0013C4.74374 1.90484 6.69615 0.501404 8.88879 0.501404H18.6267C20.8193 0.501404 22.7701 1.90484 23.4957 4.0013L25.3873 9.47297C26.6341 9.99559 27.5155 11.2422 27.5155 12.6958V23.1481C27.5155 24.1117 26.747 24.8901 25.7958 24.8901H24.0761C23.1248 24.8901 22.3563 24.1117 22.3563 23.1481V20.535H5.15915V23.1481C5.15915 24.1117 4.38904 24.8901 3.43944 24.8901H1.71972C0.770111 24.8901 0 24.1117 0 23.1481V12.6958C0 11.2422 0.879206 9.99559 2.12869 9.47297ZM5.86316 9.21167H21.6523L20.2497 5.15051C20.0078 4.45369 19.3576 3.98551 18.6267 3.98551H8.88879C8.15791 3.98551 7.50765 4.45369 7.26581 5.15051L5.86316 9.21167ZM5.15915 12.6958C4.20955 12.6958 3.43944 13.4742 3.43944 14.4378C3.43944 15.4014 4.20955 16.1799 5.15915 16.1799C6.11037 16.1799 6.87887 15.4014 6.87887 14.4378C6.87887 13.4742 6.11037 12.6958 5.15915 12.6958ZM22.3563 16.1799C23.3076 16.1799 24.0761 15.4014 24.0761 14.4378C24.0761 13.4742 23.3076 12.6958 22.3563 12.6958C21.4051 12.6958 20.6366 13.4742 20.6366 14.4378C20.6366 15.4014 21.4051 16.1799 22.3563 16.1799Z" fill="#F5A02E"/>
</svg>
