<svg width="29" height="29" viewBox="0 0 29 29" fill="none" xmlns="http://www.w3.org/2000/svg">
<path d="M19.4719 10.9436C19.4719 12.3119 18.9283 13.6242 17.9608 14.5917C16.9933 15.5592 15.681 16.1028 14.3127 16.1028C12.9444 16.1028 11.6322 15.5592 10.6646 14.5917C9.69712 13.6242 9.15356 12.3119 9.15356 10.9436C9.15356 9.57535 9.69712 8.2631 10.6646 7.29557C11.6322 6.32804 12.9444 5.78448 14.3127 5.78448C15.681 5.78448 16.9933 6.32804 17.9608 7.29557C18.9283 8.2631 19.4719 9.57535 19.4719 10.9436Z" fill="#DCD1D1"/>
<path fill-rule="evenodd" clip-rule="evenodd" d="M0.554932 14.3831C0.554932 10.7343 2.0044 7.235 4.58448 4.65492C7.16456 2.07484 10.6639 0.625366 14.3127 0.625366C17.9615 0.625366 21.4608 2.07484 24.0409 4.65492C26.621 7.235 28.0704 10.7343 28.0704 14.3831C28.0704 18.0319 26.621 21.5312 24.0409 24.1113C21.4608 26.6914 17.9615 28.1409 14.3127 28.1409C10.6639 28.1409 7.16456 26.6914 4.58448 24.1113C2.0044 21.5312 0.554932 18.0319 0.554932 14.3831V14.3831ZM14.3127 2.34508C12.0457 2.34521 9.82484 2.98544 7.9057 4.19211C5.98656 5.39878 4.44714 7.12282 3.46463 9.16582C2.48213 11.2088 2.09646 13.4877 2.35203 15.7402C2.60761 17.9928 3.49402 20.1273 4.90926 21.8983C6.13026 19.9309 8.81818 17.8225 14.3127 17.8225C19.8072 17.8225 22.4934 19.9292 23.7161 21.8983C25.1313 20.1273 26.0178 17.9928 26.2733 15.7402C26.5289 13.4877 26.1432 11.2088 25.1607 9.16582C24.1782 7.12282 22.6388 5.39878 20.7197 4.19211C18.8005 2.98544 16.5796 2.34521 14.3127 2.34508V2.34508Z" fill="#DCD1D1"/>
</svg>
