<svg width="16" height="16" viewBox="0 0 16 16" fill="none" xmlns="http://www.w3.org/2000/svg">
<path d="M7 16C7 16 6 16 6 14.7232C6 13.4465 7 9.61623 11 9.61623C15 9.61623 16 13.4465 16 14.7232C16 16 15 16 15 16H7ZM11 8.33948C11.7956 8.33948 12.5587 7.93593 13.1213 7.21762C13.6839 6.49931 14 5.52506 14 4.50922C14 3.49337 13.6839 2.51913 13.1213 1.80081C12.5587 1.0825 11.7956 0.678955 11 0.678955C10.2044 0.678955 9.44129 1.0825 8.87868 1.80081C8.31607 2.51913 8 3.49337 8 4.50922C8 5.52506 8.31607 6.49931 8.87868 7.21762C9.44129 7.93593 10.2044 8.33948 11 8.33948Z" fill="white"/>
<path fill-rule="evenodd" clip-rule="evenodd" d="M5.21598 16C5.06774 15.6014 4.9938 15.1644 4.99998 14.7233C4.99998 12.9933 5.67998 11.2122 6.93597 9.97373C6.30907 9.72711 5.65593 9.6065 4.99998 9.61624C0.999996 9.61624 0 13.4465 0 14.7233C0 16 0.999996 16 0.999996 16H5.21598Z" fill="white"/>
<path d="M4.5 8.33949C5.16304 8.33949 5.79893 8.0032 6.26777 7.40461C6.73661 6.80601 7 5.99414 7 5.1476C7 4.30106 6.73661 3.48919 6.26777 2.8906C5.79893 2.29201 5.16304 1.95572 4.5 1.95572C3.83696 1.95572 3.20107 2.29201 2.73223 2.8906C2.26339 3.48919 2 4.30106 2 5.1476C2 5.99414 2.26339 6.80601 2.73223 7.40461C3.20107 8.0032 3.83696 8.33949 4.5 8.33949Z" fill="white"/>
</svg>
