<svg width="27" height="27" viewBox="0 0 27 27" fill="none" xmlns="http://www.w3.org/2000/svg">
<path d="M14.5633 11.7644C13.8911 11.5964 13.2188 11.2602 12.7146 10.7561C12.2104 10.588 12.0424 10.0838 12.0424 9.74768C12.0424 9.41155 12.2104 8.90736 12.5466 8.7393C13.0507 8.40317 13.5549 8.06704 14.0591 8.23511C15.0675 8.23511 15.9078 8.7393 16.412 9.41155L17.9246 7.39479C17.4204 6.8906 16.9162 6.55447 16.412 6.21834C15.9078 5.88222 15.2356 5.71416 14.5633 5.71416V3.36127H12.5466V5.71416C11.7062 5.88222 10.8659 6.38641 10.1937 7.05866C9.52141 7.89898 9.01722 8.90736 9.18529 9.91574C9.18529 10.9241 9.52141 11.9325 10.1937 12.6048C11.034 13.4451 12.2104 13.9493 13.2188 14.4535C13.723 14.6215 14.3953 14.9576 14.8994 15.2938C15.2356 15.6299 15.4036 16.1341 15.4036 16.6383C15.4036 17.1425 15.2356 17.6467 14.8994 18.1508C14.3953 18.655 13.723 18.8231 13.2188 18.8231C12.5466 18.8231 11.7062 18.655 11.202 18.1508C10.6979 17.8147 10.1937 17.3105 9.85754 16.8063L8.17691 18.655C8.6811 19.3273 9.18529 19.8315 9.85754 20.3357C10.6979 20.8399 11.7062 21.344 12.7146 21.344V23.5289H14.5633V21.0079C15.5717 20.8399 16.412 20.3357 17.0843 19.6634C17.9246 18.8231 18.4288 17.4786 18.4288 16.3021C18.4288 15.2938 18.0926 14.1173 17.2523 13.4451C16.412 12.6048 15.5717 12.1006 14.5633 11.7644ZM13.5549 0C6.16014 0 0.109863 6.05028 0.109863 13.4451C0.109863 20.8399 6.16014 26.8901 13.5549 26.8901C20.9497 26.8901 27 20.8399 27 13.4451C27 6.05028 20.9497 0 13.5549 0ZM13.5549 25.0414C7.16853 25.0414 1.95856 19.8315 1.95856 13.4451C1.95856 7.05866 7.16853 1.8487 13.5549 1.8487C19.9413 1.8487 25.1513 7.05866 25.1513 13.4451C25.1513 19.8315 19.9413 25.0414 13.5549 25.0414Z" fill="#DCD1D1"/>
</svg>
